# xmcd
#
# Track frame offsets: 
#        150
#        10387
#        22475
#        31757
#        41747
#        50250
#        60320
#        69490
#        80079
#        88977
#        100207
#        110315
#        120445
#        131827
#        142917
#        152430
#        161575
#        170712
#        179722
#        190405
#        200172
#        209707
#        219295
#        229465
#        238612
#        247690
#        258085
#
# Disc length: 3578 seconds
#
# Revision: 2
# Processed by: cddbd v1.5.2PL0 Copyright (c) Steve Scherf et al.
# Submitted via: ExactAudioCopy v1.1
#
DISCID=860df81b
DTITLE=The Miller Brothers - Boppin` Hillbilly Series_The Miller Broth
DTITLE=ers
DYEAR=50
DGENRE=Western Swing
TTITLE0=Loco Choo choo
TTITLE1=I wanta be free
TTITLE2=I wanta big kiss
TTITLE3=Water Baby Blues
TTITLE4=Who`s gonna know
TTITLE5=Patty Cakes Man
TTITLE6=You walked away
TTITLE7=New patatoe stomp
TTITLE8=I`ll at ease
TTITLE9=Alligator Rag
TTITLE10=Rose Of Tijuana
TTITLE11=Geronimo
TTITLE12=Trailway Blues
TTITLE13=Denver Hop
TTITLE14=Tulsa Baby
TTITLE15=The Trifflin` Kind
TTITLE16=Turning The Fiddle
TTITLE17=One Of Your Lies
TTITLE18=Express Polka
TTITLE19=Jack and Jill
TTITLE20=Woddchuck Boogie
TTITLE21=Nursery Rythm Blues
TTITLE22=Fiddlin` Stomp
TTITLE23=Hey Pretty Baby
TTITLE24=Ramblin` Around
TTITLE25=Back Roads
TTITLE26=Stroll Along
EXTD=YEAR: 50` s  ID3G:   2
EXTT0=
EXTT1=
EXTT2=
EXTT3=
EXTT4=
EXTT5=
EXTT6=
EXTT7=
EXTT8=
EXTT9=
EXTT10=
EXTT11=
EXTT12=
EXTT13=
EXTT14=
EXTT15=
EXTT16=
EXTT17=
EXTT18=
EXTT19=
EXTT20=
EXTT21=
EXTT22=
EXTT23=
EXTT24=
EXTT25=
EXTT26=
PLAYORDER=
